<svg data-v-1e121de1="" version="1.0" xmlns="http://www.w3.org/2000/svg" xmlns:xlink="http://www.w3.org/1999/xlink" width="100%" height="100%" viewBox="0 0 340.000000 250.000000" preserveAspectRatio="xMidYMid meet" color-interpolation-filters="sRGB" class="el-tooltip" style="margin: auto;">
  <rect data-v-1e121de1="" x="0" y="0" width="100%" height="100%" fill="#FFFFFF" fill-opacity="1" class="background"></rect>
  <rect data-v-1e121de1="" x="0" y="0" width="100%" height="100%" fill="url(#watermark)" fill-opacity="1" class="watermarklayer"></rect>
  <g data-v-1e121de1="" fill="#FFAF00" class="icon-text-wrapper icon-svg-group iconsvg" transform="translate(86.0374984741211,90.853271484375)">
    <g class="iconsvg-imagesvg" transform="translate(0,0)">
      <rect fill="#FFAF00" fill-opacity="0" stroke-width="2" x="0" y="0" width="60" height="68.29345461736212" class="image-rect"></rect> <svg x="0" y="0" width="60" height="68.29345461736212" filtersec="colorsb3251249945" class="image-svg-svg primary"><svg xmlns="http://www.w3.org/2000/svg" viewBox="0 0 151.71 172.68">
          <g>
            <g>
              <path fill="#ffaf00" d="M0 65.33l49.64 28.66L0 114.87v16.52l71.52 41.29v-16.52L21.87 127.5l49.65-20.89V90.1L0 48.81v16.52z"></path>
              <path fill="#b84a00" d="M133.06 33.03L83.42 61.69l6.73-53.43L75.84 0 4.33 41.29l14.31 8.26 49.64-28.66-6.73 53.43 14.3 8.26 71.51-41.29-14.3-8.26z"></path>
              <path fill="#e4b801" d="M80.19 106.61l49.64-28.66-49.64 78.21v16.52l71.52-41.29v-16.52l-49.65 28.66 49.65-78.2V48.81L80.19 90.1v16.51z"></path>
            </g>
          </g>
        </svg></svg>
      <!---->
    </g>
    <g transform="translate(67,14.286727905273438)">
      <g fill-rule="" class="tp-name iconsvg-namesvg">
        <g>
          <path d="M22.50-20.13L39.27-20.13L45.98-20.13L46.97-20.13L46.97-12.27Q46.97-10.23 45.48-8.80Q44-7.37 41.58-7.37L41.58-7.37L22.50-7.37L16.23-7.37L15.46-7.37L15.46-20.13L16.72-20.13L22.50-20.13ZM22.50-11.38L37.90-11.38Q38.50-11.38 38.88-11.77Q39.27-12.15 39.27-12.76L39.27-12.76L39.27-16.11L22.50-16.11L22.50-11.38ZM48.90-27.00L48.90-22.22L13.53-22.22L13.53-27.00L28.27-27.00L28.27-30.52L14.24-30.52L16.72-38.17L23.59-38.17L22.66-35.37L28.27-35.37L28.27-39.60L35.04-39.60L35.04-35.37L47.85-35.37L47.85-30.52L35.04-30.52L35.04-27.00L48.90-27.00ZM7.81-0.06L1.38-0.06L5.28-14.03L1.38-14.03L1.43-14.19L5.45-25.96L1.38-25.96L1.38-30.96L12.43-30.96L13.37-30.96L9.35-18.98L12.43-18.98L10.18-9.79L13.92-5.00L49.17-5.00L49.17-0.06L10.06-0.06L8.30-2.15L7.81-0.06ZM1.43-39.16L8.58-39.16L12.32-32.56L5.17-32.56L1.43-39.16ZM100.21-8.20L100.21-4.40L102.30-4.40L102.30 0.06L53.84 0.06L53.84-4.40L56.05-4.40L56.05-14.19L94.16-14.19Q95.31-14.19 96.58-13.70L96.58-13.70Q97.73-13.20 98.45-12.38L98.45-12.38Q99.28-11.66 99.77-10.51L99.77-10.51Q100.21-9.24 100.21-8.20L100.21-8.20ZM91.91-19.30L92.51-19.30Q92.90-19.30 93.28-19.58L93.28-19.58Q93.61-19.86 93.61-20.30L93.61-20.30L93.61-21.29L85.14-21.29L85.14-20.07L84.20-15.95L77.06-15.95L78.10-20.07L78.10-39.66L96.58-39.66Q98.28-39.66 99.47-38.47Q100.65-37.29 100.65-35.59L100.65-35.59L100.65-22Q100.65-20.79 100.16-19.64L100.16-19.64Q99.61-18.43 98.89-17.77L98.89-17.77Q98.12-16.89 96.91-16.45L96.91-16.45Q95.97-15.95 94.60-15.95L94.60-15.95L90.47-15.95L91.91-19.30ZM76.17-39.66L76.17-21.78Q76.17-20.63 75.68-19.52L75.68-19.52Q75.30-18.54 74.47-17.66L74.47-17.66Q73.65-16.83 72.60-16.45L72.60-16.45Q71.72-15.95 70.34-15.95L70.34-15.95L55.99-15.95L55.99-39.66L76.17-39.66ZM75.68-4.40L80.52-4.40L80.52-9.73L75.68-9.73L75.68-4.40ZM63.47-9.73L63.47-4.40L68.25-4.40L68.25-9.73L63.47-9.73ZM92.78-4.40L92.78-7.97Q92.78-8.69 92.29-9.19L92.29-9.19Q91.80-9.73 91.03-9.73L91.03-9.73L88-9.73L88-4.40L92.78-4.40ZM69.25-30.64L69.25-34.48L63.03-34.48L63.03-30.64L69.25-30.64ZM69.25-22.82L69.25-25.19L63.03-25.19L63.03-21.39L67.81-21.39Q68.42-21.39 68.81-21.84L68.81-21.84Q69.25-22.39 69.25-22.82L69.25-22.82ZM85.14-34.43L85.14-32.12L93.61-32.12L93.61-33.60Q93.61-34.43 92.73-34.43L92.73-34.43L85.14-34.43ZM85.14-25.85L93.61-25.85L93.61-27.55L85.14-27.55L85.14-25.85Z" transform="translate(-1.375, 39.655)"></path>
        </g>
        <!---->
        <!---->
        <!---->
        <!---->
        <!---->
        <!---->
        <!---->
      </g>
      <!---->
    </g>
  </g>
</svg>