<svg data-v-1e121de1="" version="1.0" xmlns="http://www.w3.org/2000/svg" xmlns:xlink="http://www.w3.org/1999/xlink" width="100%" height="100%" viewBox="0 0 340.000000 250.000000" preserveAspectRatio="xMidYMid meet" color-interpolation-filters="sRGB" class="el-tooltip" style="margin: auto;">
  <rect data-v-1e121de1="" x="0" y="0" width="100%" height="100%" fill="#2c3e50" fill-opacity="1" class="background"></rect>
  <!---->
  <g data-v-1e121de1="" fill="#fff" class="icon-text-wrapper icon-svg-group iconsvg" transform="translate(54.33000183105469,93.56439590454102)">
    <g class="iconsvg-imagesvg" transform="translate(0,0)">
      <rect fill="#fff" fill-opacity="0" stroke-width="2" x="0" y="0" width="60" height="62.847488864997494" class="image-rect"></rect> <svg filter="url(#colors9291896392)" x="0" y="0" width="60" height="62.847488864997494" filtersec="colorsf3082570379" class="image-svg-svg primary"><svg xmlns="http://www.w3.org/2000/svg" viewBox="0 0 65.11 68.2">
          <g>
            <g fill="#000000">
              <path d="M43.57 1.64C39 .29 34.77 0 29.08 0H0v7.44h8.5v28l9.66-8.27V7.92h10.43c4.45 0 7.93.19 11.69 1.55C48.06 12.28 53.35 19.15 54.7 29L40.65 17l-.26-.2-.14-.11a2.43 2.43 0 0 1-.24-.23l-.1-.1-.11-.09-.2-.27a5 5 0 0 0-.47-.33l-.92-.56-.82.7L.31 47.63H8.5v13H0v7.57h29.17a45.55 45.55 0 0 0 14.4-1.83C56.9 62.11 65.11 50.62 65.11 34.1S56.61 5.7 43.57 1.64zm-3.38 56.9a31.22 31.22 0 0 1-11.6 1.74H18.16V40.61l20.25-17.35L54.9 37.4c-.9 10.71-6.37 18.24-14.71 21.14z"></path>
              <path d="M33.3 35.21h4.17v4.15H33.3zM38.21 35.21h4.17v4.15h-4.17zM33.3 40.45h4.17v4.16H33.3zM38.21 40.45h4.17v4.16h-4.17z"></path>
              <path d="M39.66 26.4l-.37-.29a3.92 3.92 0 0 1-.37-.34c-.16-.11-.32-.24-.49-.34l-18 15.44v1.34l18-15.45a5.36 5.36 0 0 1 .49.34 3.92 3.92 0 0 0 .37.34l.37.29L51 37.48c0-.41.07-.83.1-1.24z"></path>
            </g>
          </g>
        </svg></svg>
      <defs>
        <filter id="colors9291896392">
          <feColorMatrix type="matrix" values="0 0 0 0 0.99609375  0 0 0 0 0.99609375  0 0 0 0 0.99609375  0 0 0 1 0" class="icon-fecolormatrix"></feColorMatrix>
        </filter>
        <filter id="colorsf3082570379">
          <feColorMatrix type="matrix" values="0 0 0 0 0.99609375  0 0 0 0 0.99609375  0 0 0 0 0.99609375  0 0 0 1 0" class="icon-fecolormatrix"></feColorMatrix>
        </filter>
        <filter id="colorsb7785222998">
          <feColorMatrix type="matrix" values="0 0 0 0 0  0 0 0 0 0  0 0 0 0 0  0 0 0 1 0" class="icon-fecolormatrix"></feColorMatrix>
        </filter>
      </defs>
    </g>
    <g transform="translate(67,15.240604400634766)">
      <g fill-rule="" class="tp-name iconsvg-namesvg">
        <g>
          <path d="M3.60-22.18L9.09-22.18L9.49-25.15L5.04-25.15L5.58-29.02L10.04-29.02L10.21-30.24L8.78-31.95L16.92-31.95L16.52-29.02L19.08-29.02L18.77-26.77L19.93-30.02L24.84-30.02L22.00-22.18L23.76-22.18L23.18-18.13L9.09-18.13L8.32-16.20L22.09-16.20L19.89-0.36L2.21-0.36L3.46-9.49L0.81-9.49L4.23-18.13L3.01-18.13L3.60-22.18ZM34.06-27.31L32.35-27.31L28.44 0.40L21.60 0.40L26.05-31.14L40.59-31.14L40.05-27.31L38.16-20.02L39.87-20.02L39.33-16.16L36.85-4.63L30.02-4.63L30.55-8.46L31.68-8.46L33.30-16.16L31.63-16.16L32.17-20.02L34.06-27.31ZM10.08-12.38L9.72-9.90L15.66-9.90L16.02-12.38L10.08-12.38ZM8.96-4.18L14.89-4.18L15.12-5.89L9.18-5.89L8.96-4.18ZM15.97-25.15L15.52-22.18L17.10-22.18L18.18-25.15L15.97-25.15ZM54.72 0.40L57.24-17.46L52.96-17.46L50.80-2.07L42.25-2.07L44.86-20.47L43.78-21.73L57.83-21.73L58.19-24.30L43.70-24.30L44.28-28.57L58.77-28.57L59.04-30.29L57.60-31.99L67.86-31.99L67.36-28.57L81.90-28.57L81.31-24.30L66.73-24.30L66.38-21.73L79.25-21.73L76.91-5.13Q76.72-3.87 75.71-2.97Q74.70-2.07 73.39-2.07L73.39-2.07L66.24-2.07L68.27-4.59L70.06-17.46L65.79-17.46L63.27 0.40L54.72 0.40ZM102.47-24.84L105.52-24.84L104.80-30.33L103.23-31.95L112.86-31.95L113.76-24.84L123.97-24.84L123.34-20.25L114.34-20.25L115.06-14.80L123.21-18.86L122.35-12.87L115.74-9.58L116.50-3.87L119.61-3.87L121.28-5.49L120.47 0.36L108.94 0.36L108.09-5.76L99.41-1.44L100.26-7.47L107.41-11.03L106.16-20.25L101.83-20.25L102.47-24.84ZM82.98 0.40L87.03-3.78L87.93-10.13L84.24-9.36L84.91-14.08L88.56-14.89L89.64-22.59L86.08-22.59L86.72-26.86L90.22-26.86L90.77-30.51L89.69-31.95L98.91-31.95L98.19-26.86L101.79-26.86L101.16-22.59L97.60-22.59L96.75-16.65L100.44-17.46L99.81-12.73L96.08-11.92L94.77-2.56Q94.55-1.26 93.53-0.43Q92.52 0.40 91.26 0.40L91.26 0.40L82.98 0.40ZM122.63-25.92L115.33-25.92L114.57-31.05L121.86-31.05L122.63-25.92ZM163.75-19.89L136.84-19.89L132.48 0.32L124.65 0.32L131.08-28.30L129.69-29.97L144.58-29.97L144.72-30.69L143.64-31.95L153.76-31.95L153.45-29.97L165.15-29.97L163.75-19.89ZM150.66 0.36L153.13-1.84L153.90-7.56L145.35-7.56L142.02 0.04L133.88 0.04L139.95-13.09L136.62-13.09L137.16-17.01L146.25-17.01L146.56-19.26L154.53-19.26L154.21-17.01L163.48-17.01L162.94-13.09L147.78-13.09L147.15-11.70L161.95-11.70L160.60-1.84Q160.47-0.94 159.39-0.29Q158.31 0.36 156.91 0.36L156.91 0.36L150.66 0.36ZM156.73-25.92L138.19-25.92L137.79-24.03L156.46-24.03L156.73-25.92Z" transform="translate(-0.8099999999999999, 31.994999999999997)"></path>
        </g>
        <!---->
        <!---->
        <!---->
        <!---->
        <!---->
        <!---->
        <!---->
      </g>
      <!---->
    </g>
  </g>
</svg>